<?xml version="1.0" encoding="iso-8859-1"?>
<!-- Generator: Adobe Illustrator 19.0.0, SVG Export Plug-In . SVG Version: 6.00 Build 0)  -->
<svg version="1.1" id="Capa_1" xmlns="http://www.w3.org/2000/svg" xmlns:xlink="http://www.w3.org/1999/xlink" x="0px" y="0px"
	 viewBox="0 0 512 512" style="enable-background:new 0 0 512 512;" xml:space="preserve">
<circle style="fill:#5D5360;" cx="256" cy="256" r="256"/>
<path style="fill:#4B3F4E;" d="M339.957,428.043c-141.385,0-256-114.615-256-256c0-49.18,13.896-95.102,37.935-134.107
	C48.766,83.005,0,163.795,0,256c0,141.385,114.615,256,256,256c92.205,0,172.996-48.766,218.065-121.893
	C435.059,414.147,389.138,428.043,339.957,428.043z"/>
<circle style="fill:#6F6571;" cx="371.61" cy="338.58" r="33.03"/>
<path style="fill:#FFDC64;" d="M256,0c68.412,0,123.871,114.615,123.871,256S324.412,512,256,512c141.385,0,256-114.615,256-256
	S397.385,0,256,0z"/>
<circle style="fill:#5D5360;" cx="202.32" cy="384" r="20.645"/>
<g>
	<circle style="fill:#6F6571;" cx="305.55" cy="140.39" r="16.516"/>
	<circle style="fill:#6F6571;" cx="152.77" cy="144.52" r="37.16"/>
	<path style="fill:#6F6571;" d="M222.968,256h-8.258v-8.258c0-4.565-3.694-8.258-8.258-8.258s-8.258,3.694-8.258,8.258V256h-8.258
		c-4.565,0-8.258,3.694-8.258,8.258s3.694,8.258,8.258,8.258h8.258v8.258c0,4.565,3.694,8.258,8.258,8.258s8.258-3.694,8.258-8.258
		v-8.258h8.258c4.565,0,8.258-3.694,8.258-8.258S227.532,256,222.968,256z"/>
</g>
<path style="fill:#FFF082;" d="M432.839,222.968l2.419-2.419c3.226-3.226,3.226-8.452,0-11.677s-8.452-3.226-11.677,0l-2.419,2.419
	l-2.419-2.419c-3.226-3.226-8.452-3.226-11.677,0s-3.226,8.452,0,11.677l2.419,2.419l-2.419,2.419
	c-3.226,3.226-3.226,8.452,0,11.677c1.613,1.613,3.726,2.419,5.839,2.419s4.226-0.806,5.839-2.419l2.419-2.419l2.419,2.419
	c1.613,1.613,3.726,2.419,5.839,2.419c2.113,0,4.226-0.806,5.839-2.419c3.226-3.226,3.226-8.452,0-11.677L432.839,222.968z"/>
<circle style="fill:#5D5360;" cx="90.839" cy="280.77" r="16.516"/>
<path style="fill:#FFC850;" d="M474.065,390.107L474.065,390.107c-36.901,22.743-80.034,36.25-126.221,37.658
	C325.179,479.496,292.427,512,256,512C348.205,512,428.996,463.234,474.065,390.107z"/>
<path style="fill:#FFF082;" d="M377.48,306.14c-2.202,22.915-5.899,44.703-10.847,64.971c1.637,0.25,3.274,0.502,4.98,0.502
	c18.244,0,33.032-14.789,33.032-33.032C404.645,322.347,392.913,308.916,377.48,306.14z"/>
<g>
</g>
<g>
</g>
<g>
</g>
<g>
</g>
<g>
</g>
<g>
</g>
<g>
</g>
<g>
</g>
<g>
</g>
<g>
</g>
<g>
</g>
<g>
</g>
<g>
</g>
<g>
</g>
<g>
</g>
</svg>
